<svg xmlns="http://www.w3.org/2000/svg" xmlns:xlink="http://www.w3.org/1999/xlink" width="67" zoomAndPan="magnify" viewBox="0 0 50.25 62.999997" height="84" preserveAspectRatio="xMidYMid meet" version="1.0"><defs><clipPath id="4e41c6de44"><path d="M 1.632812 12.75 L 39 12.75 L 39 50.4375 L 1.632812 50.4375 Z M 1.632812 12.75 " clip-rule="nonzero"/></clipPath><clipPath id="e00a390362"><path d="M 10 12.75 L 48 12.75 L 48 50.4375 L 10 50.4375 Z M 10 12.75 " clip-rule="nonzero"/></clipPath></defs><g clip-path="url(#4e41c6de44)"><path fill="#008f00" d="M 38.628906 30.773438 L 1.886719 12.773438 L 12.347656 31.421875 L 1.710938 50.242188 Z M 38.628906 30.773438 " fill-opacity="1" fill-rule="nonzero"/></g><g clip-path="url(#e00a390362)"><path fill="#008f00" d="M 11.277344 50.214844 C 11.175781 50.214844 11.078125 50.179688 11.003906 50.105469 C 10.890625 49.980469 10.867188 49.804688 10.941406 49.65625 L 21.242188 31.40625 L 11.128906 13.347656 C 11.039062 13.195312 11.066406 13.023438 11.175781 12.898438 C 11.289062 12.773438 11.464844 12.75 11.613281 12.824219 L 47.585938 30.449219 C 47.710938 30.511719 47.796875 30.636719 47.796875 30.773438 C 47.796875 30.910156 47.722656 31.046875 47.597656 31.109375 L 11.449219 50.179688 C 11.402344 50.203125 11.339844 50.214844 11.277344 50.214844 Z M 12.359375 14.019531 L 22 31.222656 C 22.0625 31.332031 22.0625 31.46875 22 31.582031 L 12.222656 48.921875 L 46.601562 30.796875 Z M 12.359375 14.019531 " fill-opacity="1" fill-rule="nonzero"/></g></svg>