<?xml version="1.0" encoding="UTF-8" standalone="no"?>
<!-- Created with Inkscape (http://www.inkscape.org/) -->

<svg
   version="1.1"
   id="svg1"
   width="991"
   height="341"
   viewBox="0 0 991 341"
   sodipodi:docname="WhatsApp Image 2024-02-28 à 18.21.22_16a29fea.svg"
   inkscape:version="1.3 (0e150ed6c4, 2023-07-21)"
   xmlns:inkscape="http://www.inkscape.org/namespaces/inkscape"
   xmlns:sodipodi="http://sodipodi.sourceforge.net/DTD/sodipodi-0.dtd"
   xmlns="http://www.w3.org/2000/svg"
   xmlns:svg="http://www.w3.org/2000/svg">
  <defs
     id="defs1" />
  <sodipodi:namedview
     id="namedview1"
     pagecolor="#505050"
     bordercolor="#eeeeee"
     borderopacity="1"
     inkscape:showpageshadow="0"
     inkscape:pageopacity="0"
     inkscape:pagecheckerboard="0"
     inkscape:deskcolor="#d1d1d1"
     inkscape:zoom="0.93340061"
     inkscape:cx="576.9227"
     inkscape:cy="376.58"
     inkscape:window-width="1920"
     inkscape:window-height="1040"
     inkscape:window-x="-12"
     inkscape:window-y="-12"
     inkscape:window-maximized="1"
     inkscape:current-layer="g1" />
  <g
     inkscape:groupmode="layer"
     inkscape:label="Image"
     id="g1">
    <path
       style="fill:#ffffff"
       d="m 406.35675,81.873596 c 0,-12.64997 -0.29556,-26.49643 -0.6568,-30.76991 l -0.65681,-7.76997 9.90681,0.71696 c 5.44874,0.39433 12.6068,1.01042 15.9068,1.36909 l 6,0.65213 0.61765,15.5 c 0.33971,8.525 0.67721,17.4125 0.75,19.75 l 0.13235,4.25 h 10.375 c 5.70625,0 11.78125,0.28125 13.5,0.625 l 3.125,0.625 v 8.375 8.375004 l -19.75,0.005 c -10.8625,0.003 -24.1375,0.29572 -29.5,0.65083 l -9.75,0.64565 z"
       id="path107" />
    <path
       style="fill:#ffffff"
       d="m 338.97427,97.468396 c 0.32493,-6.81807 0.88141,-22.2965 1.23663,-34.3965 l 0.64585,-22 18,0.26057 c 9.9,0.14332 23.0625,0.52521 29.25,0.84865 l 11.25,0.58808 v 8.47165 8.47166 l -14,-0.71066 -14,-0.71066 v 3.64036 3.64035 h 13 13 v 8 8 h -13 c -9.6937,0 -13.0189,0.31791 -13.07431,1.25 -0.0409,0.6875 -0.27376,2.33272 -0.51754,3.65604 l -0.44323,2.40605 15.51754,-0.66909 15.51754,-0.66909 v 9.01305 9.013044 l -6.25,0.0132 c -3.4375,0.007 -13.9,0.67602 -23.25,1.48613 -9.35,0.81012 -20.70649,1.7701 -25.23663,2.1333 l -8.23664,0.66037 z"
       id="path106" />
    <path
       style="fill:#ffffff"
       d="m 282.7522,115.44244 c 0.27174,-1.3038 0.75346,-9.79554 1.07049,-18.870544 0.31703,-9.075 0.84992,-19.98666 1.1842,-24.24815 l 0.60779,-7.74814 -6.37897,0.54666 c -3.50843,0.30067 -7.61646,0.73859 -9.12896,0.97315 l -2.75,0.42648 0.009,-6.725 c 0.005,-3.69875 0.28622,-9.03476 0.62541,-11.85779 l 0.61672,-5.1328 19.62459,-0.62684 c 10.79352,-0.34476 25.88337,-0.90179 33.533,-1.23784 l 13.90841,-0.61101 -0.62467,10.25357 c -0.34357,5.63947 -0.78379,10.41269 -0.97826,10.60716 -0.19448,0.19447 -4.14716,0.69715 -8.78374,1.11707 l -8.43046,0.76348 -0.64334,14.5 c -0.35384,7.975 -0.77222,18.8793 -0.92973,24.231784 -0.15751,5.35248 -0.543,10.11189 -0.85665,10.57646 -0.31366,0.46457 -6.19528,1.61472 -13.07028,2.5559 -6.875,0.94117 -13.98469,1.97351 -15.79931,2.29408 -3.05803,0.54024 -3.26317,0.40951 -2.80524,-1.78768 z"
       id="path105" />
    <path
       style="fill:#ffffff"
       d="m 113.35675,156.29236 c 0,-3.00752 30.01502,-97.068814 31.42448,-98.478284 0.69186,-0.69185 18.74273,-3.86253 27.26558,-4.78926 l 6.19007,-0.67308 1.51276,5.36008 c 4.60631,16.32133 10.60075,37.94163 11.6061,41.86008 0.63501,2.475004 2.08828,7.617964 3.2295,11.428814 l 2.07494,6.92881 5.39776,-10.75976 5.39776,-10.759774 3.20052,2.4189 c 6.54991,4.950304 16.13835,7.203044 23.01545,5.407334 2.14724,-0.56067 2.74022,-1.24626 2.5,-2.89043 -0.26432,-1.809094 -1.92167,-2.611574 -10.31492,-4.994454 -15.09618,-4.28587 -21.50938,-9.68781 -22.95627,-19.33642 -1.98336,-13.22594 5.49352,-25.19778 19.03746,-30.48244 8.5496,-3.33593 25.11698,-3.41924 34.52267,-0.17359 10.90547,3.76318 10.7018,3.22726 5.49231,14.45142 l -4.49979,9.69507 -5.69171,-2.60575 c -3.13045,-1.43317 -7.53963,-2.80352 -9.79819,-3.04523 -4.71147,-0.50422 -8.07046,1.34482 -7.08905,3.90233 0.6939,1.80828 3.09468,2.88108 11.95247,5.34099 14.72123,4.08825 21.5301,11.04867 21.5301,22.00929 0,7.352954 -1.97855,12.280244 -7.24496,18.042534 -8.91234,9.75153 -20.78266,14.42594 -36.61038,14.41678 -9.8731,-0.006 -14.78727,-0.8537 -21.40486,-3.69366 -2.0681,-0.88754 -4.01179,-1.3621 -4.31931,-1.05459 -0.30751,0.30752 -0.006,2.40583 0.67042,4.66292 0.67624,2.25709 1.00292,4.33042 0.72594,4.60739 -0.78135,0.78135 -29.05237,7.58133 -29.53073,7.10297 -0.23317,-0.23317 -0.74811,-2.60544 -1.1443,-5.2717 -0.83731,-5.63487 -0.73106,-5.61705 -13.31328,-2.23381 l -7.67145,2.06277 -1.21069,5.16165 c -1.77827,7.58146 -2.40157,8.33146 -8.05007,9.68651 -2.82999,0.6789 -9.81438,2.70011 -15.52088,4.49158 -5.87118,1.84316 -10.37545,2.79998 -10.37545,2.20401 z"
       id="path103" />
    <path
       style="fill:#000000"
       d="m 159.91393,110.45319 c 2.44355,-0.6153 4.41397,-1.6278 4.37871,-2.25 -0.0353,-0.62221 -0.83081,-5.48934 -1.76789,-10.815854 -1.66393,-9.45806 -3.168,-13.59291 -3.168,-8.70917 0,1.34178 -1.125,6.87448 -2.5,12.294894 -1.375,5.42041 -2.5,10.02259 -2.5,10.22706 0,0.56579 0.73761,0.46665 5.55718,-0.74693 z"
       id="path104" />
    <path
       style="fill:#ffffff"
       d="m 75.356752,167.70122 c -16.83439,-5.57333 -25.373037,-20.40659 -25.402676,-44.12932 -0.01148,-9.1872 0.448071,-13.00835 2.285035,-19 6.503321,-21.211984 20.129941,-34.587814 39.352721,-38.628474 6.99886,-1.47117 17.796138,-1.24121 20.411558,0.43472 0.73562,0.47137 0.92298,5.55849 0.5845,15.87017 l -0.49817,15.17641 -8.61648,-0.52184 c -7.774498,-0.47084 -9.056218,-0.28505 -13.116488,1.90123 -9.33218,5.024984 -13.7063,18.545854 -9.08684,28.088374 4.71808,9.74627 13.85616,9.69478 26.000888,-0.1465 l 4.41405,-3.57684 -0.65888,9.95137 c -0.36238,5.47326 -0.6612,13.40028 -0.66405,17.61561 l -0.005,7.66422 -4.75,2.89798 c -2.6125,1.59388 -6.774998,3.69984 -9.249998,4.67989 -5.03627,1.99428 -17.17283,2.99006 -21,1.723 z"
       id="path102" />
    <path
       style="fill:#ffffff"
       d="m 415.10675,172.86622 c 1.2375,-0.23836 3.2625,-0.23836 4.5,0 1.2375,0.23835 0.225,0.43337 -2.25,0.43337 -2.475,0 -3.4875,-0.19502 -2.25,-0.43337 z"
       id="path101" />
    <path
       style="fill:#ffffff"
       d="m 290.10675,172.90962 c 0.6875,-0.27741 1.8125,-0.27741 2.5,0 0.6875,0.27741 0.125,0.50439 -1.25,0.50439 -1.375,0 -1.9375,-0.22698 -1.25,-0.50439 z"
       id="path100" />
    <path
       style="fill:#ca0b0f;fill-opacity:1"
       d="m 620.85675,174.49751 c -30.39325,-4.24126 -117.72505,-12.92613 -220.5,-21.92802 -12.925,-1.13208 -30.925,-2.71972 -40,-3.5281 -9.075,-0.80837 -38.55,-3.26042 -65.5,-5.449 -59.4476,-4.82767 -57.45563,-4.64279 -58.21606,-5.40322 -1.64406,-1.64406 -8.77967,-0.85303 95.71606,-10.61068 72.94557,-6.81155 79.51133,-7.75721 116,-16.70735 5.46758,-1.34112 16.02481,-1.66343 66.46716,-2.02927 58.63112,-0.42522 76.72796,0.16564 87.03284,2.84163 4.81391,1.25009 15.79619,6.75872 32,16.05097 13.39319,7.68048 29.73426,17.71087 30.5,18.72137 0.275,0.3629 3.55091,2.62406 7.2798,5.02481 3.72888,2.40075 6.62614,4.51864 6.43835,4.70643 -0.18779,0.18779 -7.2887,-3.29302 -15.77979,-7.73513 -40.59927,-21.23948 -54.49488,-27.84784 -62.93836,-29.9317 -7.04544,-1.73882 -13.71929,-2.26629 -39,-3.0824 -16.775,-0.54152 -41.525,-0.80811 -55,-0.59242 -20.85639,0.33386 -25.61772,0.69948 -32.01567,2.45848 -8.10754,2.22903 -21.98433,8.07685 -21.98433,9.26443 0,0.62196 14.4777,4.19898 23.26115,5.74715 1.54735,0.27274 6.57146,3.84295 11.42888,8.12155 17.39046,15.31817 14.19497,13.62061 29.30997,15.57052 55.30148,7.13415 93.79402,13.29058 115.5,18.47289 9.91463,2.36712 6.87789,2.3723 -10,0.0171 z"
       id="path99" />
    <path
       style="fill:#c90c0b;fill-opacity:1"
       d="m 658.09399,194.45178 c -18.45479,-1.737 -72.74347,-6.49803 -141.73724,-12.43012 -58.7135,-5.0482 -92.54383,-8.36158 -80.5,-7.88428 16.94247,0.67145 115.63379,5.59646 169.5,8.4586 10.175,0.54064 32,1.6624 48.5,2.49281 44.73558,2.25143 64.80345,3.45322 65.25832,3.90809 0.22412,0.22412 -2.11356,2.02019 -5.19483,3.99126 l -5.60232,3.58376 -15.23059,-0.13 c -8.37682,-0.0715 -24.12382,-0.96706 -34.99334,-1.99012 z"
       id="path98" />
    <path
       style="fill:#ffffff"
       d="m 334.85675,192.99504 c -8.08128,-7.0747 -20.67675,-13.55918 -34,-17.5041 -8.04572,-2.38228 -3.25915,-2.37664 7.5,0.009 10.38495,2.3025 22.53639,7.72153 29.95494,13.35863 9.50476,7.22234 9.78936,7.73096 4.29506,7.67595 -2.82588,-0.0283 -4.73573,-0.9005 -7.75,-3.53931 z"
       id="path97" />
    <path
       style="fill:#c90c10;fill-opacity:1"
       d="m 171.74352,195.38869 c -0.40219,-0.65076 -0.91778,-5.71326 -1.14574,-11.25 l -0.41449,-10.06679 19.33673,-15.34044 19.33673,-15.34045 15,0.61288 c 63.28136,2.5856 186.79145,12.32095 255,20.09969 34.08566,3.88725 41.48739,4.81426 41.14814,5.15351 -0.17666,0.17667 -19.18227,-0.3483 -42.23467,-1.16658 -23.05241,-0.81829 -62.38847,-2.17704 -87.41347,-3.01945 -98.5455,-3.31732 -132.08492,-4.46661 -146,-5.00299 l -14.5,-0.55892 -21.5,11.92538 -21.5,11.92538 -0.29569,6.60599 -0.29569,6.606 h -6.89529 c -4.22995,0 -7.17796,-0.45736 -7.62656,-1.18321 z"
       id="path96" />
    <path
       style="fill:#cc0a0e;fill-opacity:1"
       d="m 874.85675,259.9115 c 23.93108,-8.72167 56.06419,-20.67114 56.42061,-20.98138 0.73553,-0.64022 -4.12473,-5.37446 -14.38641,-14.0134 -19.25538,-16.21042 -36.01466,-25.8054 -55.57594,-31.81819 -26.62922,-8.18536 -79.31497,-17.91696 -119.17982,-22.01374 -23.80475,-2.44634 -24.78544,-2.37665 -62.16487,4.41771 -9.28753,1.68817 -17.61253,3.05035 -18.5,3.02706 -0.88746,-0.0233 8.06143,-3.55615 19.88643,-7.85081 11.825,-4.29466 23.075,-8.47391 25,-9.28722 3.96979,-1.67723 7.3696,-1.46986 45,2.74474 72.98795,8.17466 111.15027,16.4144 137.5,29.68802 12.65888,6.37689 38.36862,23.64325 45.2748,30.40603 0.70115,0.68658 3.31212,2.91775 5.80216,4.95816 6.67603,5.4705 7.90567,9.1931 3.59572,10.88566 -2.91523,1.14484 -74.2661,22.50025 -74.98507,22.44313 -0.37819,-0.0301 2.46239,-1.20264 6.31239,-2.60577 z"
       id="path95" />
    <path
       style="fill:#ffffff"
       d="m 668.35675,255.11234 v -27.45956 l -8.25,-0.29044 -8.25,-0.29044 v -13 -13 l 35.25,-0.26279 c 19.3875,-0.14454 35.25,0.011 35.25,0.34563 0,0.33463 -0.84229,1.80289 -1.87175,3.26279 -2.79219,3.95966 -6.63011,11.97749 -8.57034,17.90437 l -1.71864,5.25 h -6.41964 -6.41963 v 27.5 27.5 h -14.5 -14.5 z"
       id="path94" />
    <path
       style="fill:#ffffff"
       d="m 536.94172,250.8219 c -1.72688,-5.49657 -4.58497,-17.90767 -4.58497,-19.90996 0,-4.42519 -1.81309,-2.3344 -2.52346,2.90996 -0.39112,2.8875 -1.55255,7.95 -2.58094,11.25 -1.02839,3.3 -1.8756,6.3375 -1.8827,6.75 -0.007,0.4125 2.71742,0.75 6.05449,0.75 5.32124,0 5.99977,-0.21521 5.51758,-1.75 z"
       id="path93" />
    <path
       style="fill:#ffffff"
       d="m 492.31864,265.84707 c 12.71192,-36.29403 22.37222,-62.83396 23.3046,-64.02517 0.70718,-0.90349 5.24562,-1.25 16.37213,-1.25 h 15.39374 l 1.46123,3.25 c 0.80368,1.7875 4.6661,12.475 8.58316,23.75 3.91706,11.275 9.77722,28.05123 13.02259,37.28052 3.24536,9.22929 5.90066,17.00321 5.90066,17.27539 0,0.27218 -7.06645,0.37095 -15.70322,0.21948 l -15.70323,-0.27539 -1.0946,-4.5 -1.09461,-4.5 h -11.40434 -11.40434 l -1.09461,4.5 -1.0946,4.5 -15.66002,0.27517 -15.66002,0.27518 z"
       id="path92" />
    <path
       style="fill:#ffffff"
       d="m 332.97688,281.3219 c 0.40599,-0.6875 1.77384,-2.63107 3.03968,-4.31904 7.26217,-9.68399 11.99297,-27.48906 10.99924,-41.39723 -0.76084,-10.64861 -2.73255,-17.48913 -7.7423,-26.86051 -2.15421,-4.02974 -3.91675,-7.52435 -3.91675,-7.76582 0,-0.24147 12.4875,-0.31942 27.75,-0.17322 l 27.75,0.26582 0.28383,10.75 0.28383,10.75 h -13.03383 -13.03383 v 3.96725 3.96725 l 11.25,0.28275 11.25,0.28275 0.28498,10.25 0.28499,10.25 h -11.53499 -11.53498 v 4.5 4.5 h 13 13 v 11 11 h -29.55902 c -23.37423,0 -29.40456,-0.26154 -28.82085,-1.25 z"
       id="path91" />
    <path
       style="fill:#ffffff"
       d="m 270.85675,299.92338 c -16.75315,-3.48903 -29.41098,-11.12657 -38.52265,-23.24398 -10.44069,-13.88484 -14.86034,-31.92905 -11.66073,-47.6075 4.73948,-23.22392 22.35567,-42.06795 44.95006,-48.08304 6.93069,-1.8451 21.845,-1.79177 29.27322,0.10466 22.68181,5.79069 40.12927,24.20766 45.06814,47.57244 2.84435,13.45605 -0.14963,29.84771 -7.78745,42.63526 -7.68988,12.87472 -23.29603,24.28511 -37.93463,27.73579 -5.89025,1.38848 -18.65239,1.87218 -23.38596,0.88637 z"
       id="path83" />
    <path
       style="fill:#ffffff"
       d="m 164.35675,241.5719 v -41 h 30.58333 c 16.82084,0 30.41787,0.3375 30.21563,0.75 -0.20223,0.4125 -2.20095,4.41931 -4.4416,8.90402 -2.24065,4.48472 -4.32055,9.09722 -4.62201,10.25 -0.51492,1.96908 -1.21979,2.09598 -11.64173,2.09598 h -11.09362 l -0.001,4.25 -0.001,4.25 h 10.01524 10.01525 l 0.26563,10.25 0.26563,10.25 h -10.27998 -10.27977 v 4.5 4.5 h 11.76528 11.76528 l 1.70378,4.79709 c 0.93707,2.63839 3.50788,7.58839 5.71291,11 l 4.00913,6.20291 h -31.97819 -31.97819 z"
       id="path90" />
    <path
       style="fill:#ffffff"
       d="m 127.59553,241.8219 0.26122,-40.75 14.75,-0.27673 14.75,-0.27674 v 41.02674 41.02673 h -15.01122 -15.01121 z"
       id="path89" />
    <path
       style="fill:#ffffff"
       d="m 92.606752,234.80804 c 1.78052,-1.57308 2.31685,-5.84134 0.98469,-7.83644 -1.29915,-1.94565 -5.00684,-3.3997 -8.66894,-3.3997 h -3.56575 v 6.33333 c 0,3.48334 0.323,6.65633 0.71778,7.05111 1.10729,1.10729 8.57033,-0.41497 10.53222,-2.1483 z"
       id="path88" />
    <path
       style="fill:#ffffff"
       d="m 52.356757,241.45716 v -41.11474 l 23.749995,0.46989 c 18.95651,0.37504 24.658248,0.80971 28.249998,2.15363 12.1554,4.54813 16.93471,11.01199 17.74497,23.99948 1.39254,22.32058 -8.57561,31.60648 -33.928618,31.60648 h -6.81635 v 12 12 h -14.5 -14.499995 z"
       id="path87" />
    <path
       style="fill:#ffffff"
       d="m 600.00724,283.52294 c -10.89626,-1.82832 -20.49257,-9.05193 -25.01316,-18.82864 -2.00425,-4.33458 -2.15778,-6.47656 -2.46578,-34.40034 l -0.32846,-29.77793 14.32846,0.27793 14.32845,0.27794 0.5,26.64711 c 0.45776,24.39591 0.66094,26.82476 2.40499,28.75 2.31671,2.55739 8.69037,2.86467 11.02358,0.53146 0.86429,-0.86428 1.66542,-1.65178 1.7803,-1.75 0.11489,-0.0982 0.45239,-12.32857 0.75,-27.17857 l 0.54113,-27 h 14.5 14.5 l 0.2917,23 c 0.42662,33.6381 -1.08354,41.72517 -9.3319,49.97353 -8.58737,8.58738 -22.43195,12.05774 -37.80931,9.47751 z"
       id="path86" />
    <path
       style="fill:#ffffff"
       d="m 417.85675,283.87434 c -6.99856,-0.92823 -23.5,-7.03939 -23.5,-8.70301 0,-0.20178 1.73117,-4.5817 3.84704,-9.73315 2.11588,-5.15146 4.1462,-10.20446 4.51184,-11.2289 0.49096,-1.37559 0.99787,-1.58619 1.93865,-0.80541 0.70063,0.58147 4.04507,2.43215 7.43208,4.11262 9.8273,4.87583 19.62164,3.88818 17.81734,-1.79668 -0.4595,-1.44775 -2.72794,-2.50989 -8.83262,-4.13564 -16.14992,-4.30093 -22.15489,-10.539 -22.09381,-22.95144 0.0619,-12.58782 7.12949,-22.55634 19.23239,-27.12656 10.08705,-3.80901 31.19609,-1.68856 40.14518,4.03268 1.32111,0.8446 1.29252,1.53654 -0.24199,5.85706 -0.95704,2.69462 -2.86584,7.35829 -4.24176,10.36371 l -2.50169,5.4644 -6.00266,-2.881 c -6.93872,-3.33027 -14.48519,-3.57883 -16.39061,-0.53988 -1.73809,2.77209 1.24163,4.77744 10.9514,7.37029 4.80077,1.28198 10.40599,3.44086 12.45604,4.79752 4.83601,3.20032 8.97318,11.32225 8.97318,17.61579 0,20.68035 -18.55081,33.59666 -43.5,30.2876 z"
       id="path85" />
    <path
       style="fill:#000000"
       d="m 296.35675,281.93665 c 7.6168,-2.91585 17.82166,-11.05448 21.28899,-16.9785 0.57214,-0.97752 -2.42487,-3.43464 -10.90434,-8.93999 l -11.69332,-7.59199 -2.09567,2.47866 c -3.00519,3.55441 -5.76583,4.66707 -11.57958,4.66707 -9.92565,0 -15.01608,-5.32911 -15.01608,-15.72015 0,-4.55668 0.54145,-6.79459 2.26993,-9.38197 2.67711,-4.00739 7.91788,-6.89415 12.51991,-6.89633 3.75577,-0.002 10.67022,3.21122 11.99147,5.57216 0.75355,1.34651 2.73175,0.47382 13.01807,-5.74296 6.67122,-4.03191 12.1455,-7.5631 12.16506,-7.84708 0.0665,-0.96526 -9.45029,-10.64978 -12.55446,-12.77575 -10.22283,-7.00136 -27.97204,-8.96256 -39.95052,-4.41433 -12.08026,4.58688 -21.92705,15.02565 -25.80582,27.35725 -2.08364,6.62444 -2.36787,19.19939 -0.59556,26.34916 3.93675,15.88149 17.78202,28.89143 33.94192,31.89411 4.79936,0.89177 18.53532,-0.32019 23,-2.02936 z"
       id="path84" />
    <path
       style="fill:#ffffff"
       d="m 760.42836,300.98093 c -20.97628,-5.63918 -38.04602,-22.85616 -43.52819,-43.90365 -1.99465,-7.65797 -1.97453,-22.04568 0.0418,-29.86104 4.22763,-16.38672 17.21302,-32.1843 32.41482,-39.43477 19.76228,-9.42557 42.37623,-7.82149 60.05829,4.26012 11.24529,7.68356 18.34255,16.89398 23.52572,30.53031 2.59973,6.83959 2.84574,8.60069 2.79381,20 -0.0635,13.94069 -1.83529,20.52483 -8.50064,31.58914 -7.16932,11.9009 -22.59802,23.23354 -36.52152,26.82568 -7.64443,1.97219 -22.93736,1.96927 -30.28405,-0.006 z"
       id="path1" />
    <path
       style="fill:#000000"
       d="m 787.13823,283.06138 c 8.60678,-2.02918 13.63456,-4.79086 20.30459,-11.15299 13.21952,-12.60928 16.34242,-32.93435 7.70752,-50.16346 -3.88836,-7.7584 -10.94673,-14.37127 -19.79359,-18.54428 -5.51679,-2.60223 -7.95409,-3.12533 -16.11294,-3.45818 -11.24754,-0.45886 -18.67791,1.26751 -26.278,6.10542 -14.06447,8.95289 -20.31151,21.5602 -19.34205,39.03468 0.41966,7.56423 1.00529,9.8557 4.13961,16.19757 8.82946,17.86519 28.91188,26.8057 49.37486,21.98124 z"
       id="path81" />
    <path
       style="fill:#ffffff"
       d="m 773.43009,256.85187 c -6.65167,-1.27562 -10.07515,-6.36865 -10.0696,-14.98031 0.007,-10.44946 5.2043,-15.86178 14.49271,-15.09151 6.15875,0.51073 8.89365,2.3964 11.0861,7.64367 5.09363,12.19076 -3.56903,24.71798 -15.50921,22.42815 z"
       id="path82" />
  </g>
</svg>
