<svg xmlns="http://www.w3.org/2000/svg" xmlns:xlink="http://www.w3.org/1999/xlink" width="60" zoomAndPan="magnify" viewBox="0 0 45 44.999999" height="60" preserveAspectRatio="xMidYMid meet" version="1.0"><defs><clipPath id="7f91be9761"><path d="M 3.980469 3.578125 L 24 3.578125 L 24 23 L 3.980469 23 Z M 3.980469 3.578125 " clip-rule="nonzero"/></clipPath><clipPath id="3f82dcac0a"><path d="M 22 22 L 40.730469 22 L 40.730469 41.078125 L 22 41.078125 Z M 22 22 " clip-rule="nonzero"/></clipPath><clipPath id="8dd84f5e62"><path d="M 3.980469 5 L 40.730469 5 L 40.730469 41.078125 L 3.980469 41.078125 Z M 3.980469 5 " clip-rule="nonzero"/></clipPath></defs><path fill="#008f00" d="M 15.496094 19.210938 L 12.179688 15.78125 L 12.082031 15.679688 C 11.992188 15.589844 11.898438 15.511719 11.808594 15.433594 C 11.652344 15.503906 11.523438 15.628906 11.453125 15.792969 L 9.878906 19.464844 C 9.75 19.769531 9.847656 20.121094 10.113281 20.3125 L 12.140625 21.792969 C 12.03125 22.667969 12.023438 23.542969 12.109375 24.40625 L 10.042969 25.839844 C 9.871094 25.957031 9.761719 26.144531 9.746094 26.34375 C 9.730469 26.457031 9.746094 26.570312 9.789062 26.679688 L 10.121094 27.503906 L 10.523438 28.511719 L 13.113281 25.941406 L 13.34375 25.714844 L 13.386719 25.671875 L 14.046875 25.015625 L 14.222656 25.1875 C 14.390625 25.132812 14.570312 25.101562 14.75 25.097656 C 14.703125 24.863281 14.664062 24.628906 14.632812 24.390625 C 14.433594 22.820312 14.636719 21.179688 15.304688 19.621094 C 15.367188 19.480469 15.429688 19.34375 15.496094 19.210938 " fill-opacity="1" fill-rule="nonzero"/><path fill="#008f00" d="M 30.21875 34.429688 L 27.519531 31.640625 C 27.183594 31.789062 26.835938 31.921875 26.480469 32.03125 C 26.109375 32.148438 25.726562 32.238281 25.339844 32.308594 C 23.648438 32.605469 21.855469 32.429688 20.160156 31.707031 L 19.761719 32.101562 L 19.492188 32.371094 L 16.292969 35.542969 C 16.300781 35.546875 16.304688 35.550781 16.308594 35.550781 L 19.980469 37.125 C 20.28125 37.253906 20.632812 37.15625 20.828125 36.894531 L 22.308594 34.863281 C 23.183594 34.972656 24.058594 34.980469 24.921875 34.894531 L 26.351562 36.960938 C 26.429688 37.074219 26.535156 37.15625 26.652344 37.207031 C 26.820312 37.28125 27.015625 37.285156 27.191406 37.214844 L 28.480469 36.699219 L 30.078125 36.0625 L 30.902344 35.734375 C 30.957031 35.710938 31.007812 35.683594 31.054688 35.648438 C 30.714844 34.972656 30.316406 34.53125 30.230469 34.441406 L 30.21875 34.429688 " fill-opacity="1" fill-rule="nonzero"/><path fill="#008f00" d="M 37.730469 19.8125 L 37.71875 19.78125 L 36.246094 16.101562 C 36.1875 15.957031 36.085938 15.839844 35.957031 15.761719 C 35.929688 15.746094 35.898438 15.730469 35.871094 15.714844 C 35.75 15.667969 35.617188 15.648438 35.484375 15.667969 L 33 16.054688 C 32.867188 15.882812 32.726562 15.714844 32.582031 15.550781 L 30.796875 17.320312 C 30.925781 17.472656 31.046875 17.628906 31.164062 17.785156 C 31.425781 18.140625 31.660156 18.511719 31.867188 18.898438 C 32.027344 19.203125 32.171875 19.511719 32.300781 19.832031 C 32.410156 20.101562 32.503906 20.375 32.585938 20.65625 C 32.683594 20.984375 32.761719 21.320312 32.820312 21.664062 C 33.121094 23.363281 32.945312 25.164062 32.214844 26.871094 C 32.066406 27.210938 31.902344 27.539062 31.71875 27.855469 L 33.511719 29.707031 C 34.007812 30.21875 34.5625 30.683594 35.160156 31.089844 L 35.289062 31.113281 C 35.613281 31.167969 35.9375 30.996094 36.066406 30.695312 L 37.640625 27.023438 C 37.769531 26.722656 37.671875 26.371094 37.40625 26.179688 L 35.378906 24.695312 C 35.488281 23.820312 35.496094 22.945312 35.410156 22.085938 L 37.476562 20.652344 C 37.746094 20.464844 37.851562 20.117188 37.730469 19.8125 " fill-opacity="1" fill-rule="nonzero"/><path fill="#008f00" d="M 16.230469 11.816406 C 16.273438 11.875 16.324219 11.929688 16.375 11.988281 L 19.417969 15.136719 C 19.464844 15.113281 19.507812 15.089844 19.550781 15.066406 C 19.8125 14.933594 20.074219 14.8125 20.34375 14.703125 C 20.664062 14.578125 20.988281 14.46875 21.320312 14.378906 C 21.742188 14.257812 22.175781 14.171875 22.609375 14.117188 C 24.183594 13.921875 25.824219 14.125 27.386719 14.792969 C 27.636719 14.898438 27.882812 15.019531 28.121094 15.148438 L 31.632812 11.664062 C 31.667969 11.359375 31.496094 11.0625 31.210938 10.9375 L 27.539062 9.363281 C 27.238281 9.238281 26.886719 9.332031 26.691406 9.597656 L 25.210938 11.625 C 24.335938 11.515625 23.460938 11.507812 22.597656 11.59375 L 21.167969 9.53125 C 21.089844 9.417969 20.984375 9.332031 20.867188 9.28125 C 20.835938 9.269531 20.804688 9.257812 20.773438 9.25 C 20.628906 9.210938 20.472656 9.21875 20.328125 9.277344 L 16.648438 10.746094 L 16.617188 10.757812 C 16.3125 10.878906 16.132812 11.195312 16.183594 11.523438 L 16.230469 11.816406 " fill-opacity="1" fill-rule="nonzero"/><g clip-path="url(#7f91be9761)"><path fill="#008f00" d="M 4.566406 9.960938 C 5.230469 11.578125 6.507812 13.601562 8.714844 13.601562 C 8.875 13.601562 9.039062 13.59375 9.207031 13.570312 C 9.207031 13.570312 9.34375 13.539062 9.582031 13.539062 C 10.1875 13.539062 11.460938 13.734375 12.859375 15.121094 L 12.855469 15.125 L 13.285156 15.570312 L 15.972656 18.347656 L 20.339844 22.863281 L 21.027344 22.183594 L 16.507812 17.582031 L 14.742188 15.777344 L 13.738281 14.757812 C 13.40625 14.421875 13.414062 13.886719 13.746094 13.554688 C 13.914062 13.394531 14.128906 13.3125 14.339844 13.3125 C 14.5625 13.3125 14.78125 13.398438 14.949219 13.570312 L 15.914062 14.554688 L 17.675781 16.347656 L 22.230469 20.988281 L 23.019531 20.207031 L 18.59375 15.636719 L 16.484375 13.453125 L 15.683594 12.628906 C 12.851562 9.4375 15.199219 7.375 12.828125 5.140625 C 11.691406 4.066406 10.222656 3.707031 9.007812 3.621094 C 8.789062 3.605469 8.578125 3.597656 8.378906 3.597656 C 7.710938 3.597656 7.171875 3.671875 6.886719 3.71875 C 6.804688 3.734375 6.78125 3.835938 6.851562 3.882812 L 10.019531 6.007812 C 10.242188 6.160156 10.378906 6.40625 10.378906 6.675781 C 10.386719 7.191406 10.277344 7.710938 10.042969 8.199219 C 9.609375 9.109375 8.824219 9.75 7.875 10.074219 C 7.796875 10.101562 7.710938 10.113281 7.632812 10.113281 C 7.484375 10.113281 7.332031 10.070312 7.207031 9.992188 L 4.128906 8.105469 C 4.113281 8.097656 4.097656 8.09375 4.082031 8.09375 C 4.027344 8.09375 3.980469 8.144531 3.996094 8.207031 C 4.074219 8.53125 4.25 9.199219 4.566406 9.960938 " fill-opacity="1" fill-rule="nonzero"/></g><g clip-path="url(#3f82dcac0a)"><path fill="#008f00" d="M 38.972656 38.625 L 38.878906 39.515625 C 38.878906 39.515625 38.433594 39.578125 37.992188 39.640625 L 37.464844 40.363281 C 37.464844 40.363281 37.046875 40.195312 36.636719 40.03125 L 35.820312 40.394531 C 35.820312 40.394531 35.542969 40.039062 35.265625 39.6875 L 34.378906 39.59375 C 34.378906 39.59375 34.316406 39.148438 34.253906 38.707031 L 33.53125 38.183594 C 33.53125 38.183594 33.699219 37.765625 33.867188 37.355469 L 33.5 36.535156 C 33.5 36.535156 33.515625 36.523438 33.535156 36.507812 C 33.636719 36.429688 33.921875 36.207031 34.207031 35.984375 L 34.300781 35.09375 C 34.300781 35.09375 34.746094 35.03125 35.1875 34.96875 L 35.710938 34.246094 C 35.710938 34.246094 36.128906 34.414062 36.539062 34.582031 L 36.808594 34.464844 L 37.359375 34.21875 C 37.359375 34.21875 37.636719 34.570312 37.910156 34.921875 L 38.800781 35.015625 C 38.800781 35.015625 38.863281 35.460938 38.925781 35.902344 L 39.648438 36.429688 C 39.648438 36.429688 39.480469 36.847656 39.3125 37.257812 L 39.675781 38.074219 C 39.675781 38.074219 39.324219 38.351562 38.972656 38.625 Z M 37.867188 33.414062 C 37.851562 33.410156 37.835938 33.40625 37.816406 33.402344 C 36.101562 32.863281 34.523438 31.960938 33.21875 30.734375 C 33.089844 30.613281 32.960938 30.488281 32.839844 30.359375 L 31.191406 28.664062 L 25.402344 22.671875 L 24.632812 23.433594 L 30.546875 29.457031 L 31.714844 30.648438 C 32.03125 30.972656 32.039062 31.484375 31.730469 31.8125 C 31.726562 31.820312 31.722656 31.824219 31.714844 31.828125 C 31.710938 31.835938 31.707031 31.839844 31.703125 31.847656 C 31.691406 31.855469 31.679688 31.863281 31.667969 31.871094 C 31.65625 31.886719 31.644531 31.898438 31.628906 31.910156 C 31.476562 32.027344 31.292969 32.085938 31.109375 32.085938 C 31.039062 32.085938 30.972656 32.078125 30.902344 32.0625 C 30.757812 32.027344 30.617188 31.949219 30.503906 31.832031 L 29.289062 30.597656 L 23.429688 24.628906 L 22.722656 25.328125 L 28.394531 31.191406 L 30.894531 33.777344 L 30.910156 33.789062 C 30.945312 33.828125 31.058594 33.949219 31.210938 34.144531 C 31.652344 34.71875 32.429688 35.925781 32.5 37.464844 C 32.566406 39.015625 33.503906 40.457031 34.992188 41.074219 C 35.523438 41.296875 36.066406 41.398438 36.59375 41.398438 C 38.488281 41.398438 40.207031 40.074219 40.601562 38.113281 C 41.007812 36.09375 39.820312 34.054688 37.867188 33.414062 " fill-opacity="1" fill-rule="nonzero"/></g><g clip-path="url(#8dd84f5e62)"><path fill="#008f00" d="M 16.105469 33.605469 L 9.082031 40.574219 C 9.007812 40.417969 8.96875 40.246094 8.96875 40.082031 C 8.972656 39.785156 9.085938 39.492188 9.3125 39.265625 L 16.335938 32.300781 L 17.082031 31.558594 C 17.308594 31.335938 17.601562 31.222656 17.894531 31.222656 C 18.066406 31.222656 18.234375 31.261719 18.390625 31.335938 Z M 7.722656 38.816406 C 7.425781 38.816406 7.132812 38.707031 6.90625 38.476562 C 6.683594 38.253906 6.570312 37.957031 6.574219 37.660156 C 6.574219 37.367188 6.6875 37.074219 6.914062 36.847656 L 13.167969 30.644531 L 14.6875 29.140625 C 14.910156 28.917969 15.203125 28.804688 15.496094 28.804688 C 15.792969 28.804688 16.089844 28.917969 16.3125 29.144531 C 16.761719 29.597656 16.757812 30.328125 16.308594 30.773438 L 15.515625 31.558594 L 8.535156 38.484375 C 8.3125 38.707031 8.015625 38.816406 7.722656 38.816406 Z M 5.324219 36.398438 C 5.15625 36.398438 4.984375 36.363281 4.828125 36.289062 L 11.132812 30.035156 L 14.140625 27.050781 C 14.339844 27.480469 14.261719 28.003906 13.910156 28.355469 L 11.535156 30.710938 L 6.136719 36.066406 C 5.910156 36.289062 5.617188 36.398438 5.324219 36.398438 Z M 19.058594 31.476562 L 19.101562 31.4375 L 19.101562 31.433594 C 19.152344 31.378906 19.195312 31.316406 19.238281 31.253906 C 19.523438 30.792969 19.464844 30.175781 19.066406 29.773438 L 18.90625 29.613281 L 19.351562 29.171875 C 19.566406 28.960938 19.566406 28.613281 19.351562 28.394531 L 18.828125 27.867188 L 21.402344 25.316406 L 21.738281 24.984375 L 22.070312 24.652344 L 22.769531 23.957031 L 23.101562 23.628906 L 23.640625 23.09375 L 23.976562 22.761719 L 24.746094 21.996094 L 25.082031 21.664062 L 25.414062 21.335938 L 30.15625 16.632812 L 31.9375 14.863281 L 34.890625 11.933594 L 37.359375 10.921875 C 37.421875 10.898438 37.480469 10.851562 37.519531 10.796875 L 40.636719 6.488281 C 40.707031 6.390625 40.695312 6.253906 40.613281 6.171875 L 39.613281 5.164062 C 39.5625 5.117188 39.5 5.09375 39.4375 5.09375 C 39.390625 5.09375 39.339844 5.105469 39.296875 5.136719 L 34.964844 8.21875 C 34.90625 8.257812 34.863281 8.3125 34.835938 8.378906 L 33.800781 10.835938 L 31.34375 13.277344 L 28.949219 15.652344 L 24.339844 20.222656 L 24.003906 20.554688 L 23.671875 20.886719 L 22.890625 21.660156 L 22.558594 21.992188 L 22.019531 22.523438 L 21.6875 22.855469 L 20.996094 23.542969 L 20.328125 24.203125 L 17.742188 26.769531 L 17.089844 26.113281 C 16.980469 26.003906 16.839844 25.949219 16.699219 25.949219 C 16.558594 25.949219 16.417969 26.003906 16.3125 26.109375 L 15.867188 26.550781 L 15.707031 26.386719 C 15.511719 26.1875 15.257812 26.070312 14.996094 26.042969 C 14.949219 26.035156 14.902344 26.03125 14.855469 26.03125 C 14.566406 26.03125 14.277344 26.136719 14.046875 26.34375 L 14.046875 26.339844 L 14.007812 26.382812 L 13.777344 26.609375 L 10.902344 29.460938 L 5.054688 35.261719 C 4.820312 35.492188 4.625 35.75 4.46875 36.019531 C 4.285156 36.339844 4.152344 36.679688 4.074219 37.035156 C 4.019531 37.285156 3.992188 37.539062 3.992188 37.796875 C 3.988281 38.714844 4.335938 39.632812 5.03125 40.335938 C 5.734375 41.042969 6.65625 41.398438 7.578125 41.398438 C 7.832031 41.398438 8.082031 41.371094 8.328125 41.320312 C 8.679688 41.246094 9.023438 41.117188 9.34375 40.933594 C 9.617188 40.78125 9.871094 40.585938 10.105469 40.359375 L 15.929688 34.582031 L 18.832031 31.703125 L 19.058594 31.476562 " fill-opacity="1" fill-rule="nonzero"/></g></svg>