<svg xmlns="http://www.w3.org/2000/svg" xmlns:xlink="http://www.w3.org/1999/xlink" width="60" zoomAndPan="magnify" viewBox="0 0 45 44.999999" height="60" preserveAspectRatio="xMidYMid meet" version="1.0"><defs><clipPath id="1b2331587a"><path d="M 3.632812 13.019531 L 41.132812 13.019531 L 41.132812 31.769531 L 3.632812 31.769531 Z M 3.632812 13.019531 " clip-rule="nonzero"/></clipPath></defs><g clip-path="url(#1b2331587a)"><path fill="#008f00" d="M 19.511719 27.875 L 39.464844 26.808594 L 15.847656 26.808594 C 14.820312 27.519531 13.601562 27.941406 12.355469 27.941406 C 10.855469 27.941406 9.589844 27.335938 8.765625 26.351562 C 7.945312 25.371094 7.5625 24 7.800781 22.5 C 8.050781 20.996094 8.878906 19.648438 10.011719 18.660156 C 11.148438 17.679688 12.613281 17.070312 14.105469 17.070312 C 15.347656 17.070312 16.425781 17.492188 17.21875 18.203125 L 17.511719 18.203125 L 17.632812 17.53125 L 23.921875 17.53125 L 21.25 17.109375 C 21.328125 17.039062 21.394531 16.964844 21.46875 16.898438 C 21.582031 16.785156 21.621094 16.625 21.53125 16.519531 C 21.335938 16.285156 21.144531 16.058594 20.949219 15.828125 C 20.761719 15.601562 20.566406 15.367188 20.375 15.132812 C 20.285156 15.027344 20.128906 15.035156 20.007812 15.132812 C 19.515625 15.503906 19.019531 15.871094 18.53125 16.242188 C 17.761719 15.644531 16.847656 15.222656 15.808594 15.019531 C 15.855469 14.453125 15.898438 13.882812 15.945312 13.316406 C 15.960938 13.171875 15.867188 13.042969 15.726562 13.042969 L 13.78125 13.042969 C 13.636719 13.042969 13.507812 13.171875 13.472656 13.316406 C 13.328125 13.882812 13.191406 14.453125 13.058594 15.019531 C 11.957031 15.214844 10.902344 15.636719 9.945312 16.234375 C 9.574219 15.863281 9.195312 15.496094 8.820312 15.125 C 8.722656 15.035156 8.5625 15.019531 8.449219 15.125 C 8.1875 15.351562 7.914062 15.585938 7.652344 15.8125 C 7.378906 16.046875 7.117188 16.269531 6.851562 16.503906 C 6.730469 16.609375 6.71875 16.769531 6.792969 16.875 C 7.085938 17.304688 7.386719 17.742188 7.691406 18.179688 C 6.949219 19.066406 6.371094 20.0625 5.992188 21.132812 C 5.421875 21.179688 4.847656 21.222656 4.273438 21.269531 C 4.132812 21.277344 3.996094 21.390625 3.972656 21.53125 C 3.921875 21.855469 3.867188 22.179688 3.816406 22.503906 C 3.761719 22.835938 3.710938 23.167969 3.65625 23.492188 C 3.632812 23.636719 3.730469 23.75 3.867188 23.765625 C 4.425781 23.808594 4.984375 23.855469 5.542969 23.898438 C 5.5625 24.972656 5.820312 25.964844 6.273438 26.824219 C 5.835938 27.261719 5.390625 27.691406 4.953125 28.128906 C 4.839844 28.242188 4.800781 28.402344 4.894531 28.507812 C 5.082031 28.734375 5.277344 28.964844 5.464844 29.199219 C 5.660156 29.425781 5.851562 29.660156 6.046875 29.886719 C 6.136719 29.992188 6.292969 29.976562 6.414062 29.886719 C 6.914062 29.515625 7.402344 29.148438 7.902344 28.777344 C 8.660156 29.375 9.589844 29.789062 10.628906 29.984375 C 10.585938 30.550781 10.539062 31.121094 10.492188 31.6875 C 10.484375 31.832031 10.570312 31.945312 10.71875 31.945312 L 12.671875 31.945312 C 12.816406 31.945312 12.945312 31.832031 12.980469 31.6875 C 13.117188 31.121094 13.253906 30.550781 13.394531 29.984375 C 14.496094 29.789062 15.558594 29.367188 16.515625 28.769531 C 16.894531 29.140625 17.261719 29.507812 17.640625 29.878906 C 17.738281 29.976562 17.898438 29.984375 18.015625 29.878906 C 18.28125 29.644531 18.550781 29.417969 18.816406 29.183594 C 19.082031 28.957031 19.351562 28.726562 19.617188 28.492188 C 19.734375 28.386719 19.75 28.226562 19.675781 28.113281 C 19.621094 28.039062 19.5625 27.957031 19.511719 27.875 Z M 23.933594 17.554688 L 23.8125 18.222656 L 28.179688 18.222656 Z M 41.332031 16.03125 C 40.941406 16.089844 40.097656 16.308594 40.03125 16.316406 C 40.023438 16.347656 40.03125 16.460938 40.039062 16.480469 C 40.460938 16.390625 40.925781 16.242188 41.355469 16.164062 C 41.339844 16.105469 41.332031 16.058594 41.332031 16.03125 Z M 26.957031 15.433594 C 26.519531 15.171875 25.992188 14.953125 25.441406 14.71875 C 24.566406 14.6875 23.90625 14.792969 23.476562 15.035156 C 23.476562 15.035156 24.554688 15.328125 25.425781 15.773438 C 26 16.066406 26 16.511719 26 16.550781 C 26.316406 16.332031 26.996094 16.136719 27.53125 16.121094 C 27.484375 15.910156 27.320312 15.652344 26.957031 15.433594 Z M 27.417969 14.347656 C 26.898438 14.0625 26.503906 13.804688 26.339844 13.691406 C 25.035156 13.4375 23.859375 13.21875 22.894531 13.128906 C 23.023438 13.40625 23.285156 13.679688 23.714844 13.925781 C 24.214844 14.207031 24.792969 14.445312 25.441406 14.726562 C 26.46875 14.777344 27.816406 14.96875 28.925781 15.222656 C 28.519531 14.960938 27.945312 14.644531 27.417969 14.347656 Z M 29.988281 17.125 C 29.882812 16.890625 29.800781 16.664062 29.722656 16.429688 C 28.804688 16.179688 27.898438 16.089844 27.546875 16.136719 C 27.597656 16.390625 27.679688 16.640625 27.808594 16.890625 C 27.945312 17.144531 28.089844 17.394531 28.210938 17.660156 C 28.820312 17.613281 29.785156 17.734375 30.261719 17.816406 C 30.183594 17.582031 30.085938 17.347656 29.988281 17.125 Z M 31.925781 16.082031 C 31.480469 15.933594 29.105469 15.246094 28.949219 15.222656 C 29.445312 15.636719 29.632812 16.050781 29.722656 16.429688 C 30.539062 16.65625 31.324219 16.820312 32.121094 17.03125 C 32.015625 16.699219 31.957031 16.398438 31.925781 16.082031 Z M 33.902344 15.683594 C 32.921875 15.375 31.871094 15.066406 30.726562 14.75 C 30.976562 14.945312 31.300781 15.171875 31.554688 15.417969 C 31.78125 15.644531 31.894531 15.886719 31.933594 16.066406 C 32.640625 16.316406 33.328125 16.535156 34.042969 16.738281 C 34.058594 16.316406 33.992188 15.992188 33.902344 15.683594 Z M 34.179688 17.484375 C 33.804688 17.378906 32.136719 17.039062 32.128906 17.039062 C 32.28125 17.484375 32.421875 17.882812 32.5 18.1875 C 32.84375 18.238281 33.886719 18.351562 34.316406 18.367188 C 34.292969 18.117188 34.238281 17.832031 34.179688 17.484375 Z M 35.898438 16.234375 C 35.824219 16.453125 35.769531 16.707031 35.71875 17.003906 C 35.777344 16.988281 37.007812 16.949219 37.203125 16.917969 C 37.242188 16.6875 37.347656 16.488281 37.4375 16.324219 C 37.210938 16.292969 36.230469 16.226562 35.898438 16.234375 Z M 35.710938 17.003906 C 35.632812 16.996094 34.15625 16.777344 34.050781 16.761719 C 34.074219 16.980469 34.113281 17.242188 34.179688 17.484375 C 34.253906 17.492188 35.476562 17.539062 35.746094 17.484375 C 35.71875 17.296875 35.703125 17.144531 35.710938 17.003906 Z M 37.226562 17.296875 C 37.113281 17.320312 35.988281 17.476562 35.753906 17.484375 C 35.769531 17.695312 35.832031 17.914062 35.875 18.101562 C 36.085938 18.050781 37.179688 17.773438 37.359375 17.703125 C 37.300781 17.574219 37.234375 17.347656 37.226562 17.296875 Z M 38.605469 16.664062 C 38.507812 16.679688 37.269531 16.898438 37.210938 16.917969 C 37.195312 17.03125 37.195312 17.160156 37.234375 17.289062 C 37.691406 17.160156 38.152344 17.0625 38.621094 16.917969 C 38.574219 16.828125 38.597656 16.730469 38.605469 16.664062 Z M 40.023438 16.496094 C 39.886719 16.527344 38.761719 16.875 38.621094 16.925781 C 38.648438 17.023438 38.710938 17.125 38.753906 17.207031 C 38.875 17.160156 40 16.777344 40.089844 16.730469 C 40.058594 16.664062 40.039062 16.582031 40.023438 16.496094 Z M 38.855469 16.203125 C 38.769531 16.269531 38.644531 16.542969 38.613281 16.664062 C 38.769531 16.617188 39.636719 16.382812 40.015625 16.316406 C 40.039062 16.121094 40.136719 16.015625 40.261719 15.960938 C 39.789062 16.039062 39.320312 16.113281 38.855469 16.203125 Z M 11.980469 18.894531 L 10.359375 25.394531 L 11.246094 25.394531 L 12.867188 18.894531 Z M 15.386719 21.359375 C 14.957031 21.359375 14.519531 21.707031 14.414062 22.144531 C 14.308594 22.574219 14.570312 22.929688 15 22.929688 C 15.429688 22.929688 15.867188 22.582031 15.972656 22.144531 C 16.078125 21.707031 15.816406 21.359375 15.386719 21.359375 Z M 15.777344 22.136719 C 15.695312 22.460938 15.363281 22.730469 15.039062 22.730469 C 14.714844 22.730469 14.511719 22.46875 14.59375 22.136719 C 14.675781 21.804688 15.007812 21.539062 15.332031 21.539062 C 15.664062 21.546875 15.859375 21.8125 15.777344 22.136719 Z M 15.386719 21.359375 C 14.957031 21.359375 14.519531 21.707031 14.414062 22.144531 C 14.308594 22.574219 14.570312 22.929688 15 22.929688 C 15.429688 22.929688 15.867188 22.582031 15.972656 22.144531 C 16.078125 21.707031 15.816406 21.359375 15.386719 21.359375 Z M 15.777344 22.136719 C 15.695312 22.460938 15.363281 22.730469 15.039062 22.730469 C 14.714844 22.730469 14.511719 22.46875 14.59375 22.136719 C 14.675781 21.804688 15.007812 21.539062 15.332031 21.539062 C 15.664062 21.546875 15.859375 21.8125 15.777344 22.136719 Z M 15.386719 21.359375 C 14.957031 21.359375 14.519531 21.707031 14.414062 22.144531 C 14.308594 22.574219 14.570312 22.929688 15 22.929688 C 15.429688 22.929688 15.867188 22.582031 15.972656 22.144531 C 16.078125 21.707031 15.816406 21.359375 15.386719 21.359375 Z M 15.777344 22.136719 C 15.695312 22.460938 15.363281 22.730469 15.039062 22.730469 C 14.714844 22.730469 14.511719 22.46875 14.59375 22.136719 C 14.675781 21.804688 15.007812 21.539062 15.332031 21.539062 C 15.664062 21.546875 15.859375 21.8125 15.777344 22.136719 Z M 13.757812 18.894531 L 12.136719 25.394531 L 12.460938 25.394531 L 14.082031 18.894531 Z M 13.214844 18.894531 L 11.59375 25.394531 L 11.917969 25.394531 L 13.53125 18.894531 Z M 12.832031 27.40625 C 11.867188 27.40625 10.273438 26.847656 9.515625 25.9375 C 8.753906 25.023438 8.335938 24.113281 8.625 22.371094 C 8.910156 20.628906 10.515625 18.496094 12.4375 17.726562 C 11.382812 18.058594 10.410156 18.699219 9.664062 19.535156 C 8.917969 20.371094 8.414062 21.253906 8.210938 22.511719 C 8.007812 23.765625 8.335938 25.175781 9.097656 26.085938 C 9.859375 27 11.382812 27.554688 12.421875 27.554688 C 13.464844 27.554688 13.804688 27.414062 14.453125 27.15625 C 13.925781 27.316406 13.804688 27.40625 12.832031 27.40625 Z M 12.832031 27.40625 " fill-opacity="1" fill-rule="nonzero"/></g><path fill="#008f00" d="M 14.367188 18.894531 L 12.746094 25.394531 L 17.113281 25.394531 L 17.1875 25.078125 L 18.726562 18.894531 Z M 16.191406 22.136719 C 16.058594 22.695312 15.492188 23.140625 14.941406 23.140625 C 14.382812 23.140625 14.050781 22.6875 14.1875 22.136719 C 14.324219 21.578125 14.890625 21.132812 15.4375 21.132812 C 15.988281 21.132812 16.328125 21.585938 16.191406 22.136719 Z M 16.191406 22.136719 " fill-opacity="1" fill-rule="nonzero"/></svg>