<svg xmlns="http://www.w3.org/2000/svg" xmlns:xlink="http://www.w3.org/1999/xlink" width="29" zoomAndPan="magnify" viewBox="0 0 37.5 37.499999" height="29" preserveAspectRatio="xMidYMid meet" version="1.0"><defs><clipPath id="c9f0a5faf9"><path d="M 2.398438 15 L 7 15 L 7 25 L 2.398438 25 Z M 2.398438 15 " clip-rule="nonzero"/></clipPath><clipPath id="5c2fb670b5"><path d="M 30 15 L 34.964844 15 L 34.964844 25 L 30 25 Z M 30 15 " clip-rule="nonzero"/></clipPath><clipPath id="0c550a3620"><path d="M 16 5.417969 L 21 5.417969 L 21 9 L 16 9 Z M 16 5.417969 " clip-rule="nonzero"/></clipPath><clipPath id="9e74675c73"><path d="M 16 27 L 22 27 L 22 31.320312 L 16 31.320312 Z M 16 27 " clip-rule="nonzero"/></clipPath></defs><path fill="#ffffff" d="M 23.03125 20.011719 C 22.472656 20.011719 22.023438 19.5625 22.023438 19.003906 C 22.023438 18.449219 22.472656 18 23.03125 18 C 23.585938 18 24.035156 18.449219 24.035156 19.003906 C 24.035156 19.5625 23.585938 20.011719 23.03125 20.011719 Z M 18.5 23.277344 C 17.109375 23.277344 15.984375 22.375 15.984375 21.265625 L 21.015625 21.265625 C 21.015625 22.375 19.890625 23.277344 18.5 23.277344 Z M 13.972656 20.011719 C 13.417969 20.011719 12.964844 19.5625 12.964844 19.003906 C 12.964844 18.449219 13.417969 18 13.972656 18 C 14.527344 18 14.976562 18.449219 14.976562 19.003906 C 14.976562 19.5625 14.527344 20.011719 13.972656 20.011719 Z M 22.527344 13.972656 L 14.476562 13.972656 C 12.808594 13.972656 11.296875 14.648438 10.203125 15.742188 C 9.113281 16.835938 8.4375 18.34375 8.4375 20.011719 C 8.4375 23.347656 11.140625 26.050781 14.476562 26.050781 L 22.527344 26.050781 C 24.195312 26.050781 25.703125 25.375 26.796875 24.28125 C 27.890625 23.1875 28.566406 21.679688 28.566406 20.011719 C 28.566406 16.675781 25.863281 13.972656 22.527344 13.972656 " fill-opacity="1" fill-rule="nonzero"/><path fill="#ffffff" d="M 18.5 30.078125 L 15.480469 30.078125 C 14.121094 30.078125 12.804688 29.8125 11.5625 29.285156 C 10.363281 28.777344 9.289062 28.054688 8.363281 27.128906 C 7.441406 26.203125 6.714844 25.128906 6.207031 23.929688 C 5.683594 22.6875 5.417969 21.371094 5.417969 20.011719 C 5.417969 18.652344 5.683594 17.335938 6.207031 16.09375 C 6.714844 14.894531 7.441406 13.820312 8.363281 12.894531 C 9.289062 11.972656 10.363281 11.246094 11.5625 10.738281 C 12.804688 10.214844 14.121094 9.949219 15.480469 9.949219 L 21.519531 9.949219 C 22.878906 9.949219 24.195312 10.214844 25.4375 10.738281 C 26.636719 11.246094 27.714844 11.972656 28.636719 12.894531 C 29.5625 13.820312 30.285156 14.894531 30.792969 16.09375 C 31.320312 17.335938 31.585938 18.652344 31.585938 20.011719 L 30.578125 20.011719 C 30.578125 15.015625 26.515625 10.953125 21.519531 10.953125 L 15.480469 10.953125 C 10.488281 10.953125 6.421875 15.015625 6.421875 20.011719 C 6.421875 25.007812 10.488281 29.070312 15.480469 29.070312 L 18.5 29.070312 L 18.5 30.078125 " fill-opacity="1" fill-rule="nonzero"/><g clip-path="url(#c9f0a5faf9)"><path fill="#ffffff" d="M 6.421875 24.039062 C 4.199219 24.039062 2.398438 22.234375 2.398438 20.011719 C 2.398438 17.789062 4.199219 15.984375 6.421875 15.984375 L 6.421875 24.039062 " fill-opacity="1" fill-rule="nonzero"/></g><g clip-path="url(#5c2fb670b5)"><path fill="#ffffff" d="M 30.578125 24.039062 C 32.800781 24.039062 34.605469 22.234375 34.605469 20.011719 C 34.605469 17.789062 32.800781 15.984375 30.578125 15.984375 L 30.578125 24.039062 " fill-opacity="1" fill-rule="nonzero"/></g><path fill="#ffffff" d="M 21.015625 14.476562 C 21.015625 15.589844 19.890625 16.488281 18.5 16.488281 C 17.109375 16.488281 15.984375 15.589844 15.984375 14.476562 C 15.984375 13.363281 17.109375 12.464844 18.5 12.464844 C 19.890625 12.464844 21.015625 13.363281 21.015625 14.476562 " fill-opacity="1" fill-rule="nonzero"/><g clip-path="url(#0c550a3620)"><path fill="#ffffff" d="M 20.011719 6.929688 C 20.011719 7.761719 19.335938 8.4375 18.5 8.4375 C 17.667969 8.4375 16.992188 7.761719 16.992188 6.929688 C 16.992188 6.09375 17.667969 5.417969 18.5 5.417969 C 19.335938 5.417969 20.011719 6.09375 20.011719 6.929688 " fill-opacity="1" fill-rule="nonzero"/></g><g clip-path="url(#9e74675c73)"><path fill="#ffffff" d="M 21.519531 29.574219 C 21.519531 30.683594 20.394531 31.585938 19.003906 31.585938 C 17.613281 31.585938 16.488281 30.683594 16.488281 29.574219 C 16.488281 28.460938 17.613281 27.5625 19.003906 27.5625 C 20.394531 27.5625 21.519531 28.460938 21.519531 29.574219 " fill-opacity="1" fill-rule="nonzero"/></g><path fill="#ffffff" d="M 19.003906 16.007812 L 17.996094 16.007812 L 17.996094 6.929688 L 19.003906 6.929688 L 19.003906 16.007812 " fill-opacity="1" fill-rule="nonzero"/></svg>