<svg xmlns="http://www.w3.org/2000/svg" xmlns:xlink="http://www.w3.org/1999/xlink" width="60" zoomAndPan="magnify" viewBox="0 0 45 44.999999" height="60" preserveAspectRatio="xMidYMid meet" version="1.0"><defs><clipPath id="eb99e13b98"><path d="M 3.59375 9 L 34 9 L 34 34 L 3.59375 34 Z M 3.59375 9 " clip-rule="nonzero"/></clipPath><clipPath id="9eff8b5495"><path d="M 17 29 L 26 29 L 26 37.867188 L 17 37.867188 Z M 17 29 " clip-rule="nonzero"/></clipPath><clipPath id="5d0f0703d1"><path d="M 36 17 L 41.09375 17 L 41.09375 37.867188 L 36 37.867188 Z M 36 17 " clip-rule="nonzero"/></clipPath></defs><g clip-path="url(#eb99e13b98)"><path fill="#008f00" d="M 21.550781 28.414062 C 24.324219 28.414062 26.59375 30.5625 26.792969 33.285156 L 32.734375 33.285156 C 33.25 33.285156 33.671875 32.867188 33.671875 32.351562 L 33.671875 31.648438 C 33.671875 31.132812 33.25 30.710938 32.734375 30.710938 L 31.589844 30.710938 C 32.203125 29.191406 32.851562 27.464844 32.851562 26.972656 C 32.851562 24.996094 22.921875 23.660156 18.53125 23.074219 C 21.660156 16.910156 31.957031 7.121094 28.636719 9.464844 C 25.652344 11.570312 18.800781 20.0625 16.550781 22.824219 C 16.507812 22.820312 16.484375 22.816406 16.484375 22.816406 C 16.484375 22.816406 10.324219 16.992188 9.46875 16.332031 C 8.933594 15.917969 6.5625 15.519531 3.601562 15.277344 L 3.601562 16.6875 C 6.164062 16.902344 8.113281 17.222656 8.644531 17.472656 C 9.125 17.882812 11.566406 20.289062 13.832031 22.722656 L 3.601562 22.722656 L 3.601562 33.285156 L 16.304688 33.285156 C 16.503906 30.5625 18.773438 28.414062 21.550781 28.414062 Z M 21.550781 28.414062 " fill-opacity="1" fill-rule="nonzero"/></g><g clip-path="url(#9eff8b5495)"><path fill="#008f00" d="M 21.550781 29.464844 C 19.355469 29.464844 17.554688 31.144531 17.359375 33.285156 C 17.347656 33.414062 17.339844 33.542969 17.339844 33.675781 C 17.339844 36 19.222656 37.882812 21.550781 37.882812 C 23.875 37.882812 25.757812 36 25.757812 33.675781 C 25.757812 33.542969 25.75 33.414062 25.738281 33.285156 C 25.542969 31.144531 23.742188 29.464844 21.550781 29.464844 Z M 21.550781 35.234375 C 20.6875 35.234375 19.988281 34.535156 19.988281 33.675781 C 19.988281 33.621094 19.992188 33.570312 19.996094 33.519531 C 20.074219 32.730469 20.742188 32.117188 21.550781 32.117188 C 22.355469 32.117188 23.023438 32.730469 23.101562 33.519531 C 23.105469 33.570312 23.109375 33.621094 23.109375 33.675781 C 23.109375 34.535156 22.410156 35.234375 21.550781 35.234375 Z M 21.550781 35.234375 " fill-opacity="1" fill-rule="nonzero"/></g><g clip-path="url(#5d0f0703d1)"><path fill="#008f00" d="M 39.554688 27 C 40.246094 26.824219 40.875 26.355469 41.105469 25.167969 C 41.386719 22.734375 41.226562 21.296875 40.484375 19.089844 C 39.933594 17.484375 38.578125 16.980469 37.640625 17.210938 C 36.828125 17.414062 36.410156 18.429688 36.527344 19.410156 C 36.96875 19 37.1875 18.664062 37.1875 18.660156 C 37.394531 18.328125 37.75 18.132812 38.140625 18.132812 C 38.34375 18.132812 38.546875 18.191406 38.722656 18.296875 C 39.246094 18.621094 39.410156 19.308594 39.089844 19.832031 C 38.992188 19.992188 38.449219 20.804688 37.363281 21.613281 C 37.253906 21.695312 37.132812 21.78125 37.003906 21.867188 C 37.207031 23.027344 37.34375 24.296875 37.191406 25.449219 C 36.84375 26.390625 36.199219 28.5 36.195312 31.242188 C 36.195312 32.960938 36.453125 34.933594 37.214844 36.988281 C 37.421875 37.539062 37.945312 37.882812 38.5 37.882812 C 38.65625 37.882812 38.816406 37.855469 38.976562 37.796875 C 39.683594 37.535156 40.046875 36.746094 39.78125 36.039062 C 39.148438 34.328125 38.933594 32.691406 38.933594 31.242188 C 38.933594 29.695312 39.183594 28.371094 39.429688 27.445312 C 39.472656 27.285156 39.515625 27.136719 39.554688 27 Z M 39.554688 27 " fill-opacity="1" fill-rule="nonzero"/></g><path fill="#008f00" d="M 33.625 13.515625 C 33.582031 13.527344 33.542969 13.535156 33.496094 13.546875 C 32.238281 13.863281 31.300781 14.460938 31.40625 14.882812 C 31.441406 15.011719 31.570312 15.109375 31.773438 15.175781 C 32.222656 15.3125 33.015625 15.285156 33.878906 15.070312 C 35.027344 14.78125 35.902344 14.261719 35.972656 13.851562 C 36.101562 14.253906 35.28125 14.972656 34.105469 15.46875 C 33.878906 15.5625 33.660156 15.644531 33.445312 15.710938 C 33.898438 16.835938 35.121094 17.484375 36.332031 17.183594 C 37.652344 16.851562 38.453125 15.511719 38.121094 14.191406 C 37.789062 12.875 36.453125 12.074219 35.132812 12.40625 C 34.476562 12.570312 33.949219 12.980469 33.625 13.515625 Z M 33.625 13.515625 " fill-opacity="1" fill-rule="nonzero"/><path fill="#008f00" d="M 32.046875 23.300781 L 32.035156 23.300781 C 31.898438 23.300781 31.757812 23.296875 31.613281 23.292969 L 32.160156 23.921875 C 32.375 24.171875 32.75 24.199219 33 23.984375 C 33.21875 23.796875 33.265625 23.484375 33.132812 23.242188 C 32.789062 23.277344 32.429688 23.300781 32.050781 23.300781 Z M 32.046875 23.300781 " fill-opacity="1" fill-rule="nonzero"/><path fill="#008f00" d="M 30.859375 21 C 30.902344 21 30.949219 21 30.992188 21.007812 C 31.074219 21.015625 31.15625 21.023438 31.238281 21.03125 L 30.71875 20.429688 C 30.960938 19.917969 30.898438 19.289062 30.503906 18.832031 C 30.105469 18.371094 29.492188 18.21875 28.949219 18.382812 L 29.550781 19.078125 C 29.765625 19.328125 29.738281 19.707031 29.488281 19.921875 C 29.242188 20.136719 28.863281 20.109375 28.648438 19.859375 L 28.046875 19.164062 C 27.804688 19.675781 27.867188 20.308594 28.261719 20.765625 C 28.660156 21.222656 29.273438 21.378906 29.816406 21.210938 L 29.992188 21.414062 C 30.199219 21.160156 30.511719 21 30.859375 21 Z M 30.859375 21 " fill-opacity="1" fill-rule="nonzero"/><path fill="#008f00" d="M 38.882812 19.707031 C 39.136719 19.296875 39.007812 18.757812 38.597656 18.503906 C 38.1875 18.25 37.648438 18.378906 37.394531 18.785156 C 37.394531 18.785156 37.394531 18.789062 37.390625 18.789062 C 37.351562 18.851562 36.933594 19.472656 36.09375 20.074219 C 35.222656 20.695312 33.921875 21.308594 32.035156 21.308594 C 31.699219 21.308594 31.339844 21.289062 30.964844 21.246094 C 30.484375 21.1875 30.046875 21.535156 29.992188 22.011719 C 29.9375 22.492188 30.28125 22.929688 30.761719 22.984375 C 31.203125 23.035156 31.628906 23.0625 32.035156 23.0625 C 32.039062 23.0625 32.042969 23.0625 32.046875 23.0625 C 34.394531 23.0625 36.117188 22.246094 37.222656 21.421875 C 38.332031 20.59375 38.84375 19.773438 38.882812 19.707031 Z M 38.882812 19.707031 " fill-opacity="1" fill-rule="nonzero"/></svg>